<?xml version="1.0" encoding="iso-8859-1"?>
<!-- Generator: Adobe Illustrator 18.0.0, SVG Export Plug-In . SVG Version: 6.00 Build 0)  -->
<!DOCTYPE svg PUBLIC "-//W3C//DTD SVG 1.1//EN" "http://www.w3.org/Graphics/SVG/1.1/DTD/svg11.dtd">
<svg version="1.1" id="Capa_1" xmlns="http://www.w3.org/2000/svg" xmlns:xlink="http://www.w3.org/1999/xlink" x="0px" y="0px"
	 viewBox="0 0 183.153 183.153" style="enable-background:new 0 0 183.153 183.153;" xml:space="preserve">
<g>
	<path d="M182.274,0.879c-1.171-1.172-3.071-1.172-4.242,0L145.331,33.58c-1.5-0.209-3.074,0.245-4.227,1.398l-9.146,9.146
		l-11.538-11.537c-1.953-1.952-5.118-1.952-7.071,0l-76.01,76.01l-1.521-1.521c-1.953-1.952-5.118-1.952-7.071,0
		c-1.953,1.953-1.953,5.119,0,7.071l5.057,5.057l11.538,11.538l-27.828,27.827l-8.978-8.978c-1.953-1.952-5.118-1.952-7.071,0
		c-1.953,1.953-1.953,5.119,0,7.071l25.027,25.027c0.977,0.976,2.256,1.464,3.536,1.464c1.279,0,2.559-0.488,3.536-1.464
		c1.953-1.953,1.953-5.119,0-7.071l-8.978-8.978l27.828-27.827L63.95,149.35l5.057,5.057c0.977,0.976,2.256,1.464,3.536,1.464
		s2.559-0.488,3.536-1.464c1.953-1.953,1.953-5.119,0-7.071l-1.521-1.521l76.01-76.01c0.938-0.938,1.464-2.209,1.464-3.536
		s-0.527-2.598-1.464-3.536L139.03,51.195l9.146-9.146c1.153-1.153,1.607-2.728,1.398-4.227l32.7-32.7
		C183.446,3.95,183.446,2.05,182.274,0.879z M67.486,138.743L44.41,115.667l14.417-14.417l11.538,11.538
		c0.585,0.586,1.354,0.879,2.121,0.879s1.536-0.293,2.121-0.879c1.172-1.171,1.172-3.071,0-4.242L63.07,97.008l7.128-7.128
		l11.538,11.538c0.585,0.585,1.354,0.878,2.121,0.878s1.536-0.293,2.122-0.879c1.171-1.171,1.171-3.071,0-4.243L74.441,85.637
		l7.128-7.128l11.538,11.538c0.585,0.586,1.354,0.879,2.121,0.879s1.536-0.293,2.121-0.879c1.172-1.171,1.172-3.071,0-4.242
		L85.812,74.266l7.128-7.128l11.537,11.538c0.586,0.586,1.354,0.879,2.122,0.879c0.768,0,1.536-0.293,2.121-0.878
		c1.172-1.172,1.172-3.071,0-4.243L97.183,62.895l19.702-19.702l23.075,23.075L67.486,138.743z" fill="#f2f2f2"/>
</g>
<g>
</g>
<g>
</g>
<g>
</g>
<g>
</g>
<g>
</g>
<g>
</g>
<g>
</g>
<g>
</g>
<g>
</g>
<g>
</g>
<g>
</g>
<g>
</g>
<g>
</g>
<g>
</g>
<g>
</g>
</svg>
